<?xml version="1.0" encoding="UTF-8"?>
<!DOCTYPE svg PUBLIC "-//W3C//DTD SVG 1.1//EN" "http://www.w3.org/Graphics/SVG/1.1/DTD/svg11.dtd">
<!-- Creator: CorelDRAW X7 -->
<svg xmlns="http://www.w3.org/2000/svg" xml:space="preserve" width="169.333mm" height="169.333mm" version="1.1" style="shape-rendering:geometricPrecision; text-rendering:geometricPrecision; image-rendering:optimizeQuality; fill-rule:evenodd; clip-rule:evenodd"
viewBox="0 0 16933 16933"
 xmlns:xlink="http://www.w3.org/1999/xlink">
 <defs>
  <style type="text/css">
   <![CDATA[
    .fil0 {fill:none}
    .fil3 {fill:#898989;fill-rule:nonzero}
    .fil1 {fill:#5B5B5B;fill-rule:nonzero}
    .fil2 {fill:#2C375B;fill-rule:nonzero}
   ]]>
  </style>
 </defs>
 <g id="Layer_x0020_1">
  <metadata id="CorelCorpID_0Corel-Layer"/>
  <rect class="fil0" width="16933" height="16933"/>
  <g id="_1410028953504">
   <path class="fil1" d="M7539 9794l0 127 -217 0 0 674 -157 0 0 -674 -215 0 0 -127 589 0zm243 127l0 208 278 0 0 122 -278 0 0 216 311 0 0 128 -468 0 0 -801 468 0 0 127 -311 0zm781 -135c98,0 179,26 243,77 65,52 107,122 128,210l-164 0c-17,-43 -44,-77 -80,-102 -36,-25 -79,-37 -129,-37 -42,0 -79,10 -113,31 -33,21 -59,52 -77,91 -19,39 -28,85 -28,138 0,53 9,98 28,138 18,39 44,69 77,90 34,22 71,32 113,32 50,0 93,-12 129,-37 36,-25 63,-59 80,-102l164 0c-21,88 -63,158 -128,209 -64,52 -145,78 -243,78 -75,0 -141,-18 -198,-52 -58,-34 -102,-83 -134,-145 -31,-62 -47,-132 -47,-211 0,-79 16,-150 47,-212 32,-62 76,-110 133,-144 57,-35 123,-52 199,-52zm1139 8l0 801 -158 0 0 -348 -336 0 0 348 -156 0 0 -801 156 0 0 324 336 0 0 -324 158 0zm806 801l-156 0 -351 -545 0 545 -157 0 0 -801 157 0 351 549 0 -549 156 0 0 801zm510 -812c74,0 140,17 200,52 59,35 106,83 141,146 34,62 51,133 51,211 0,79 -17,149 -51,212 -35,63 -82,112 -141,147 -60,34 -126,52 -200,52 -73,0 -140,-18 -199,-52 -60,-35 -107,-84 -141,-147 -35,-63 -52,-133 -52,-212 0,-78 17,-149 52,-211 34,-63 81,-111 141,-146 59,-35 126,-52 199,-52zm0 147c-46,0 -86,11 -121,32 -35,21 -62,52 -81,91 -20,40 -30,86 -30,139 0,53 10,99 30,139 19,40 46,70 81,91 35,22 75,32 121,32 46,0 87,-10 121,-32 35,-21 62,-51 82,-91 20,-40 30,-86 30,-139 0,-53 -10,-99 -30,-139 -20,-39 -47,-70 -82,-91 -34,-21 -75,-32 -121,-32zm620 -136l210 634 211 -634 168 0 -278 801 -201 0 -278 -801 168 0zm830 127l0 208 278 0 0 122 -278 0 0 216 311 0 0 128 -467 0 0 -801 467 0 0 127 -311 0zm836 674l-184 -312 -69 0 0 312 -156 0 0 -801 299 0c91,0 160,23 208,68 48,45 72,105 72,179 0,61 -17,111 -50,152 -33,41 -80,68 -143,82l196 320 -173 0zm-253 -422l129 0c90,0 135,-41 135,-122 0,-38 -11,-68 -33,-90 -22,-21 -56,-32 -102,-32l-129 0 0 244zm1067 203c0,41 -10,78 -30,113 -20,34 -50,62 -89,83 -39,20 -87,31 -143,31 -56,0 -105,-10 -149,-29 -44,-19 -79,-47 -105,-84 -26,-36 -41,-78 -45,-127l167 0c3,33 16,60 38,81 22,22 51,33 87,33 33,0 58,-9 75,-27 18,-18 26,-40 26,-68 0,-25 -7,-46 -21,-62 -14,-17 -32,-30 -53,-39 -22,-10 -51,-22 -89,-34 -49,-17 -89,-34 -120,-50 -31,-16 -58,-40 -79,-71 -22,-31 -33,-71 -33,-121 0,-69 24,-123 73,-163 48,-39 112,-59 192,-59 83,0 149,20 199,61 49,41 77,95 84,163l-169 0c-5,-28 -17,-52 -36,-71 -19,-18 -45,-27 -79,-27 -29,0 -52,7 -70,23 -18,15 -26,38 -26,67 0,24 6,43 20,59 14,15 31,28 52,38 21,10 50,21 86,33 51,18 92,35 123,51 32,16 58,39 81,71 22,32 33,73 33,125zm272 -455l0 208 278 0 0 122 -278 0 0 216 311 0 0 128 -467 0 0 -801 467 0 0 127 -311 0z"/>
   <g>
    <g>
     <path class="fil2" d="M3116 8070c-180,-61 -348,-83 -330,-198 21,-165 226,-183 528,32l208 -327c-208,-126 -352,-183 -618,-183 -295,0 -550,187 -550,471 0,298 209,391 511,485 115,36 226,72 226,187 0,194 -345,183 -571,-76l-288 292c190,190 456,280 737,280 316,0 571,-237 571,-485 0,-266 -205,-414 -424,-478z"/>
     <path class="fil2" d="M4798 8512c-75,79 -176,122 -284,122 -108,0 -208,-43 -287,-122 -76,-83 -119,-187 -119,-299 0,-111 43,-219 119,-298 79,-79 179,-122 287,-122 108,0 209,43 284,122 79,79 119,187 119,298 0,112 -40,216 -119,299zm191 -924c-144,-122 -331,-194 -532,-194 -457,0 -823,363 -823,819 0,453 366,820 823,820 201,0 388,-72 532,-194l0 151 381 0 0 -1549 -345 0 -36 147z"/>
     <path class="fil2" d="M7430 7397c-220,0 -421,119 -547,306 -129,-187 -323,-306 -546,-306 -136,0 -280,69 -392,166l-68 -122 -349 0 0 1549 432 0 0 -892c43,-161 154,-298 330,-298 202,0 345,198 345,421l0 769 403 0 0 -795c7,-194 140,-395 341,-395 205,0 345,198 345,421l0 769 403 0 0 -769c0,-457 -313,-824 -697,-824z"/>
     <path class="fil2" d="M9437 8512c-76,79 -176,122 -284,122 -108,0 -209,-43 -288,-122 -75,-83 -118,-187 -118,-299 0,-111 43,-219 118,-298 79,-79 180,-122 288,-122 108,0 208,43 284,122 79,79 118,187 118,298 0,112 -39,216 -118,299zm190 -924c-144,-122 -330,-194 -532,-194 -456,0 -823,363 -823,819 0,453 367,820 823,820 202,0 388,-72 532,-194l0 151 381 0 0 -1549 -345 0 -36 147z"/>
     <path class="fil2" d="M10938 7439c-144,0 -278,40 -394,110l-39 -108 -349 0 0 1549 449 0 0 -856c0,-1 0,-2 0,-3 34,-153 170,-268 333,-268l146 0 0 -424 -146 0z"/>
     <path class="fil2" d="M13882 7394c-173,0 -331,54 -464,144l0 -664c-89,282 -257,529 -478,716l0 1400 478 0 0 -773c0,-111 43,-216 119,-298 75,-79 180,-123 287,-123 108,0 209,44 284,123 76,82 119,187 119,298l0 773 474 0 0 -773c0,-453 -366,-823 -819,-823z"/>
     <path class="fil2" d="M11935 7960l-23 0 0 1030 456 0 0 -1092c-137,40 -283,62 -433,62z"/>
    </g>
    <path class="fil3" d="M12970 6331c0,428 -245,801 -602,985l0 -450 -456 0 0 572c-17,1 -33,1 -50,1l-646 0 0 424 646 0c844,0 1532,-688 1532,-1532l-424 0z"/>
   </g>
  </g>
 </g>
</svg>
